<mxfile host="Electron" modified="2024-06-08T20:04:38.420Z" agent="Mozilla/5.0 (Windows NT 10.0; Win64; x64) AppleWebKit/537.36 (KHTML, like Gecko) draw.io/24.4.8 Chrome/124.0.6367.207 Electron/30.0.6 Safari/537.36" etag="OAEn2CEHU65pcor9z_2L" version="24.4.8" type="device">
  <diagram name="Página-1" id="3nIDqU8_VyzPiHL97upt">
    <mxGraphModel dx="1420" dy="830" grid="1" gridSize="10" guides="1" tooltips="1" connect="1" arrows="1" fold="1" page="1" pageScale="1" pageWidth="827" pageHeight="1169" background="#CCE5FF" math="0" shadow="0">
      <root>
        <mxCell id="0" />
        <mxCell id="1" parent="0" />
        <mxCell id="jFrrJocQfRDNM-atRcIB-1" value="&lt;b style=&quot;font-size: 16px;&quot;&gt;&lt;font style=&quot;font-size: 16px;&quot; color=&quot;#000000&quot; face=&quot;Comic Sans MS&quot;&gt;1 Hacer un programa para ingresar 10 números y guardarlos en un vector.&lt;br&gt;Determinar e informar cuál es la suma de los valores del vector&lt;/font&gt;&lt;/b&gt;" style="text;whiteSpace=wrap;html=1;fontFamily=Architects Daughter;fontSource=https%3A%2F%2Ffonts.googleapis.com%2Fcss%3Ffamily%3DArchitects%2BDaughter;" vertex="1" parent="1">
          <mxGeometry x="70" y="20" width="590" height="50" as="geometry" />
        </mxCell>
        <mxCell id="jFrrJocQfRDNM-atRcIB-40" value="" style="group;aspect=fixed;" vertex="1" connectable="0" parent="1">
          <mxGeometry x="160" y="120" width="365" height="650" as="geometry" />
        </mxCell>
        <mxCell id="jFrrJocQfRDNM-atRcIB-6" value="" style="group;aspect=fixed;" vertex="1" connectable="0" parent="jFrrJocQfRDNM-atRcIB-40">
          <mxGeometry x="165" width="50" height="50" as="geometry" />
        </mxCell>
        <mxCell id="jFrrJocQfRDNM-atRcIB-2" value="" style="strokeWidth=2;html=1;shape=mxgraph.flowchart.start_2;whiteSpace=wrap;rounded=0;labelBackgroundColor=none;strokeColor=#000000;align=center;verticalAlign=middle;fontFamily=Helvetica;fontSize=12;fontColor=default;fillColor=#d5e8d4;" vertex="1" parent="jFrrJocQfRDNM-atRcIB-6">
          <mxGeometry width="50" height="50" as="geometry" />
        </mxCell>
        <mxCell id="jFrrJocQfRDNM-atRcIB-4" value="&lt;b&gt;&lt;font face=&quot;Comic Sans MS&quot; color=&quot;#000000&quot; style=&quot;font-size: 19px;&quot;&gt;I&lt;/font&gt;&lt;/b&gt;" style="text;strokeColor=none;align=center;fillColor=none;html=1;verticalAlign=middle;whiteSpace=wrap;rounded=0;fontFamily=Architects Daughter;fontSource=https%3A%2F%2Ffonts.googleapis.com%2Fcss%3Ffamily%3DArchitects%2BDaughter;" vertex="1" parent="jFrrJocQfRDNM-atRcIB-6">
          <mxGeometry x="5" y="10" width="40" height="30" as="geometry" />
        </mxCell>
        <mxCell id="jFrrJocQfRDNM-atRcIB-7" value="" style="group;aspect=fixed;" vertex="1" connectable="0" parent="jFrrJocQfRDNM-atRcIB-40">
          <mxGeometry x="165" y="600" width="50" height="50" as="geometry" />
        </mxCell>
        <mxCell id="jFrrJocQfRDNM-atRcIB-3" value="" style="strokeWidth=2;html=1;shape=mxgraph.flowchart.start_2;whiteSpace=wrap;rounded=0;labelBackgroundColor=none;strokeColor=#000000;align=center;verticalAlign=middle;fontFamily=Helvetica;fontSize=12;fontColor=default;fillColor=#d5e8d4;" vertex="1" parent="jFrrJocQfRDNM-atRcIB-7">
          <mxGeometry width="50" height="50" as="geometry" />
        </mxCell>
        <mxCell id="jFrrJocQfRDNM-atRcIB-5" value="&lt;b&gt;&lt;font face=&quot;Comic Sans MS&quot; color=&quot;#000000&quot; style=&quot;font-size: 19px;&quot;&gt;F&lt;/font&gt;&lt;/b&gt;" style="text;strokeColor=none;align=center;fillColor=none;html=1;verticalAlign=middle;whiteSpace=wrap;rounded=0;fontFamily=Architects Daughter;fontSource=https://fonts.googleapis.com/css?family=Architects+Daughter;" vertex="1" parent="jFrrJocQfRDNM-atRcIB-7">
          <mxGeometry x="5" y="11" width="40" height="30" as="geometry" />
        </mxCell>
        <mxCell id="jFrrJocQfRDNM-atRcIB-12" value="" style="group;aspect=fixed;" vertex="1" connectable="0" parent="jFrrJocQfRDNM-atRcIB-40">
          <mxGeometry x="110" y="70" width="160" height="40" as="geometry" />
        </mxCell>
        <mxCell id="jFrrJocQfRDNM-atRcIB-8" value="" style="rounded=0;whiteSpace=wrap;html=1;labelBackgroundColor=none;strokeColor=#0f100e;strokeWidth=2;align=center;verticalAlign=middle;fontFamily=Helvetica;fontSize=12;fontColor=default;fillColor=#d5e8d4;" vertex="1" parent="jFrrJocQfRDNM-atRcIB-12">
          <mxGeometry width="160" height="40" as="geometry" />
        </mxCell>
        <mxCell id="jFrrJocQfRDNM-atRcIB-9" value="int Mi_vector[10]" style="text;strokeColor=none;align=center;fillColor=none;html=1;verticalAlign=middle;whiteSpace=wrap;rounded=0;fontFamily=Comic Sans MS;fontStyle=1;fontSize=15;fontColor=#000000;" vertex="1" parent="jFrrJocQfRDNM-atRcIB-12">
          <mxGeometry x="7" y="5" width="150" height="30" as="geometry" />
        </mxCell>
        <mxCell id="jFrrJocQfRDNM-atRcIB-36" value="" style="line;strokeWidth=2;direction=south;html=1;hachureGap=4;fontFamily=Architects Daughter;fontSource=https://fonts.googleapis.com/css?family=Architects+Daughter;strokeColor=#000000;" vertex="1" parent="jFrrJocQfRDNM-atRcIB-12">
          <mxGeometry x="75" y="-20" width="10" height="20" as="geometry" />
        </mxCell>
        <mxCell id="jFrrJocQfRDNM-atRcIB-13" value="" style="group;aspect=fixed;" vertex="1" connectable="0" parent="jFrrJocQfRDNM-atRcIB-40">
          <mxGeometry x="90" y="139" width="200" height="40" as="geometry" />
        </mxCell>
        <mxCell id="jFrrJocQfRDNM-atRcIB-10" value="" style="rounded=0;whiteSpace=wrap;html=1;labelBackgroundColor=none;strokeColor=#0f100e;strokeWidth=2;align=center;verticalAlign=middle;fontFamily=Helvetica;fontSize=12;fontColor=default;fillColor=#d5e8d4;" vertex="1" parent="jFrrJocQfRDNM-atRcIB-13">
          <mxGeometry width="200" height="40" as="geometry" />
        </mxCell>
        <mxCell id="jFrrJocQfRDNM-atRcIB-11" value="int num, suma = 0, x = 0" style="text;strokeColor=none;align=center;fillColor=none;html=1;verticalAlign=middle;whiteSpace=wrap;rounded=0;fontFamily=Comic Sans MS;fontStyle=1;fontSize=15;fontColor=#000000;" vertex="1" parent="jFrrJocQfRDNM-atRcIB-13">
          <mxGeometry y="4" width="200" height="30" as="geometry" />
        </mxCell>
        <mxCell id="jFrrJocQfRDNM-atRcIB-35" value="" style="line;strokeWidth=2;direction=south;html=1;hachureGap=4;fontFamily=Architects Daughter;fontSource=https://fonts.googleapis.com/css?family=Architects+Daughter;strokeColor=#000000;" vertex="1" parent="jFrrJocQfRDNM-atRcIB-13">
          <mxGeometry x="95" y="-29" width="10" height="29" as="geometry" />
        </mxCell>
        <mxCell id="jFrrJocQfRDNM-atRcIB-14" value="" style="group;" vertex="1" connectable="0" parent="jFrrJocQfRDNM-atRcIB-40">
          <mxGeometry y="210" width="365" height="295.58" as="geometry" />
        </mxCell>
        <mxCell id="jFrrJocQfRDNM-atRcIB-15" value="" style="whiteSpace=wrap;html=1;aspect=fixed;rounded=0;labelBackgroundColor=none;strokeColor=#000000;strokeWidth=2;align=center;verticalAlign=middle;fontFamily=Helvetica;fontSize=12;fontColor=default;fillColor=#d5e8d4;" vertex="1" parent="jFrrJocQfRDNM-atRcIB-14">
          <mxGeometry x="38.84" y="-10.74" width="306.32" height="306.32" as="geometry" />
        </mxCell>
        <mxCell id="jFrrJocQfRDNM-atRcIB-16" value="" style="group;aspect=fixed;" vertex="1" connectable="0" parent="jFrrJocQfRDNM-atRcIB-14">
          <mxGeometry x="-30.999999999999986" y="10" width="143.2" height="143.2" as="geometry" />
        </mxCell>
        <mxCell id="jFrrJocQfRDNM-atRcIB-17" value="" style="ellipse;whiteSpace=wrap;html=1;aspect=fixed;rounded=0;labelBackgroundColor=none;strokeColor=#0F140C;strokeWidth=3;align=center;verticalAlign=middle;fontFamily=Helvetica;fontSize=12;fontColor=default;fillColor=#d5e8d4;" vertex="1" parent="jFrrJocQfRDNM-atRcIB-16">
          <mxGeometry width="143.2" height="143.2" as="geometry" />
        </mxCell>
        <mxCell id="jFrrJocQfRDNM-atRcIB-18" value="" style="endArrow=none;html=1;rounded=0;strokeColor=#0F140C;fontFamily=Helvetica;fontSize=12;fontColor=default;fillColor=#B2C9AB;strokeWidth=2;" edge="1" parent="jFrrJocQfRDNM-atRcIB-16">
          <mxGeometry width="50" height="50" relative="1" as="geometry">
            <mxPoint x="137.47199999999998" y="40.096" as="sourcePoint" />
            <mxPoint x="5.727999999999999" y="40.096" as="targetPoint" />
          </mxGeometry>
        </mxCell>
        <mxCell id="jFrrJocQfRDNM-atRcIB-19" value="" style="endArrow=none;html=1;rounded=0;strokeColor=#0F140C;fontFamily=Helvetica;fontSize=12;fontColor=default;fillColor=#B2C9AB;exitX=0.264;exitY=0.952;exitDx=0;exitDy=0;exitPerimeter=0;strokeWidth=2;" edge="1" parent="jFrrJocQfRDNM-atRcIB-16" source="jFrrJocQfRDNM-atRcIB-17">
          <mxGeometry width="50" height="50" relative="1" as="geometry">
            <mxPoint x="34.367999999999995" y="85.92000000000002" as="sourcePoint" />
            <mxPoint x="40.096" y="40.096" as="targetPoint" />
          </mxGeometry>
        </mxCell>
        <mxCell id="jFrrJocQfRDNM-atRcIB-20" value="" style="endArrow=none;html=1;rounded=0;strokeColor=#0F140C;fontFamily=Helvetica;fontSize=12;fontColor=default;fillColor=#B2C9AB;exitX=0.728;exitY=0.948;exitDx=0;exitDy=0;exitPerimeter=0;strokeWidth=2;" edge="1" parent="jFrrJocQfRDNM-atRcIB-16" source="jFrrJocQfRDNM-atRcIB-17">
          <mxGeometry width="50" height="50" relative="1" as="geometry">
            <mxPoint x="85.92000000000002" y="97.376" as="sourcePoint" />
            <mxPoint x="104.2496" y="40.096" as="targetPoint" />
          </mxGeometry>
        </mxCell>
        <mxCell id="jFrrJocQfRDNM-atRcIB-22" value="&lt;b&gt;&lt;font color=&quot;#000000&quot; style=&quot;font-size: 12px;&quot; face=&quot;Comic Sans MS&quot;&gt;x = 0&lt;/font&gt;&lt;/b&gt;" style="text;strokeColor=none;align=center;fillColor=none;html=1;verticalAlign=middle;whiteSpace=wrap;rounded=0;fontFamily=Architects Daughter;fontSource=https://fonts.googleapis.com/css?family=Architects+Daughter;" vertex="1" parent="jFrrJocQfRDNM-atRcIB-16">
          <mxGeometry x="-10" y="61.60000000000002" width="60" height="30" as="geometry" />
        </mxCell>
        <mxCell id="jFrrJocQfRDNM-atRcIB-21" value="&lt;b&gt;&lt;font color=&quot;#000000&quot; style=&quot;font-size: 16px;&quot; face=&quot;Comic Sans MS&quot;&gt;x&lt;/font&gt;&lt;/b&gt;" style="text;strokeColor=none;align=center;fillColor=none;html=1;verticalAlign=middle;whiteSpace=wrap;rounded=0;fontFamily=Architects Daughter;fontSource=https%3A%2F%2Ffonts.googleapis.com%2Fcss%3Ffamily%3DArchitects%2BDaughter;" vertex="1" parent="jFrrJocQfRDNM-atRcIB-16">
          <mxGeometry x="39" y="7" width="60" height="30" as="geometry" />
        </mxCell>
        <mxCell id="jFrrJocQfRDNM-atRcIB-23" value="&lt;b style=&quot;font-size: 14px;&quot;&gt;&lt;font color=&quot;#000000&quot; style=&quot;font-size: 14px;&quot; face=&quot;Comic Sans MS&quot;&gt;x &amp;lt; 10&lt;/font&gt;&lt;/b&gt;" style="text;strokeColor=none;align=center;fillColor=none;html=1;verticalAlign=middle;whiteSpace=wrap;rounded=0;fontFamily=Architects Daughter;fontSource=https://fonts.googleapis.com/css?family=Architects+Daughter;fontSize=14;" vertex="1" parent="jFrrJocQfRDNM-atRcIB-16">
          <mxGeometry x="42" y="61.60000000000002" width="60" height="30" as="geometry" />
        </mxCell>
        <mxCell id="jFrrJocQfRDNM-atRcIB-24" value="&lt;b style=&quot;font-size: 14px;&quot;&gt;&lt;font color=&quot;#000000&quot; style=&quot;font-size: 14px;&quot; face=&quot;Comic Sans MS&quot;&gt;x++&lt;/font&gt;&lt;/b&gt;" style="text;strokeColor=none;align=center;fillColor=none;html=1;verticalAlign=middle;whiteSpace=wrap;rounded=0;fontFamily=Architects Daughter;fontSource=https://fonts.googleapis.com/css?family=Architects+Daughter;fontSize=14;" vertex="1" parent="jFrrJocQfRDNM-atRcIB-16">
          <mxGeometry x="91.19999999999999" y="60.60000000000002" width="60" height="30" as="geometry" />
        </mxCell>
        <mxCell id="jFrrJocQfRDNM-atRcIB-31" value="" style="group;aspect=fixed;" vertex="1" connectable="0" parent="jFrrJocQfRDNM-atRcIB-14">
          <mxGeometry x="140" y="79" width="140" height="37.20999999999998" as="geometry" />
        </mxCell>
        <mxCell id="jFrrJocQfRDNM-atRcIB-29" value="" style="shape=trapezoid;perimeter=trapezoidPerimeter;whiteSpace=wrap;html=1;fixedSize=1;rounded=0;labelBackgroundColor=none;strokeColor=#121211;strokeWidth=2;align=center;verticalAlign=middle;fontFamily=Helvetica;fontSize=12;fontColor=default;fillColor=#d5e8d4;direction=west;container=0;" vertex="1" parent="jFrrJocQfRDNM-atRcIB-31">
          <mxGeometry width="140" height="37.21" as="geometry">
            <mxRectangle x="-1020" y="-650" width="50" height="40" as="alternateBounds" />
          </mxGeometry>
        </mxCell>
        <mxCell id="jFrrJocQfRDNM-atRcIB-30" value="&lt;b style=&quot;font-size: 16px;&quot;&gt;&lt;font color=&quot;#000000&quot; style=&quot;font-size: 16px;&quot; face=&quot;Comic Sans MS&quot;&gt;num&lt;/font&gt;&lt;/b&gt;" style="text;strokeColor=none;align=center;fillColor=none;html=1;verticalAlign=middle;whiteSpace=wrap;rounded=0;fontFamily=Architects Daughter;fontSource=https://fonts.googleapis.com/css?family=Architects+Daughter;fontSize=16;container=0;" vertex="1" parent="jFrrJocQfRDNM-atRcIB-31">
          <mxGeometry x="37" y="2.599999999999966" width="60" height="30" as="geometry" />
        </mxCell>
        <mxCell id="jFrrJocQfRDNM-atRcIB-28" value="" style="group;aspect=fixed;" vertex="1" connectable="0" parent="jFrrJocQfRDNM-atRcIB-14">
          <mxGeometry x="84" y="160.20000000000005" width="250" height="40" as="geometry" />
        </mxCell>
        <mxCell id="jFrrJocQfRDNM-atRcIB-26" value="" style="rounded=0;whiteSpace=wrap;html=1;labelBackgroundColor=none;strokeColor=#0f100e;strokeWidth=2;align=center;verticalAlign=middle;fontFamily=Helvetica;fontSize=12;fontColor=default;fillColor=#d5e8d4;aspect=fixed;container=0;" vertex="1" parent="jFrrJocQfRDNM-atRcIB-28">
          <mxGeometry width="249.99999999999997" height="40" as="geometry" />
        </mxCell>
        <mxCell id="jFrrJocQfRDNM-atRcIB-27" value="suma += Mi_vector[x] = num" style="text;strokeColor=none;align=center;fillColor=none;html=1;verticalAlign=middle;whiteSpace=wrap;rounded=0;fontFamily=Comic Sans MS;fontStyle=1;fontSize=15;fontColor=#000000;aspect=fixed;container=0;" vertex="1" parent="jFrrJocQfRDNM-atRcIB-28">
          <mxGeometry x="21" y="4" width="215" height="30" as="geometry" />
        </mxCell>
        <mxCell id="jFrrJocQfRDNM-atRcIB-34" value="" style="line;strokeWidth=2;direction=south;html=1;hachureGap=4;fontFamily=Architects Daughter;fontSource=https://fonts.googleapis.com/css?family=Architects+Daughter;strokeColor=#000000;" vertex="1" parent="jFrrJocQfRDNM-atRcIB-14">
          <mxGeometry x="185" y="-30" width="10" height="20" as="geometry" />
        </mxCell>
        <mxCell id="jFrrJocQfRDNM-atRcIB-37" value="" style="line;strokeWidth=2;direction=south;html=1;hachureGap=4;fontFamily=Architects Daughter;fontSource=https://fonts.googleapis.com/css?family=Architects+Daughter;strokeColor=#000000;" vertex="1" parent="jFrrJocQfRDNM-atRcIB-14">
          <mxGeometry x="204" y="116.21" width="10" height="43.79" as="geometry" />
        </mxCell>
        <mxCell id="jFrrJocQfRDNM-atRcIB-32" value="" style="shape=trapezoid;perimeter=trapezoidPerimeter;whiteSpace=wrap;html=1;fixedSize=1;rounded=0;labelBackgroundColor=none;strokeColor=#0F140C;strokeWidth=2;align=center;verticalAlign=middle;fontFamily=Helvetica;fontSize=12;fontColor=default;fillColor=#d5e8d4;" vertex="1" parent="jFrrJocQfRDNM-atRcIB-40">
          <mxGeometry x="61.25" y="535.58" width="257.5" height="44.42" as="geometry" />
        </mxCell>
        <mxCell id="jFrrJocQfRDNM-atRcIB-33" value="&quot;La suma del Vector: &quot;, suma" style="text;strokeColor=none;align=center;fillColor=none;html=1;verticalAlign=middle;whiteSpace=wrap;rounded=0;fontFamily=Comic Sans MS;fontStyle=1;fontSize=15;fontColor=#000000;" vertex="1" parent="jFrrJocQfRDNM-atRcIB-40">
          <mxGeometry x="80" y="542.7900000000001" width="220" height="30" as="geometry" />
        </mxCell>
        <mxCell id="jFrrJocQfRDNM-atRcIB-38" value="" style="line;strokeWidth=2;direction=south;html=1;hachureGap=4;fontFamily=Architects Daughter;fontSource=https://fonts.googleapis.com/css?family=Architects+Daughter;strokeColor=#000000;" vertex="1" parent="jFrrJocQfRDNM-atRcIB-40">
          <mxGeometry x="185" y="503.58000000000004" width="10" height="34.42" as="geometry" />
        </mxCell>
        <mxCell id="jFrrJocQfRDNM-atRcIB-39" value="" style="line;strokeWidth=2;direction=south;html=1;hachureGap=4;fontFamily=Architects Daughter;fontSource=https://fonts.googleapis.com/css?family=Architects+Daughter;strokeColor=#000000;" vertex="1" parent="jFrrJocQfRDNM-atRcIB-40">
          <mxGeometry x="185" y="580" width="10" height="20" as="geometry" />
        </mxCell>
      </root>
    </mxGraphModel>
  </diagram>
</mxfile>
